<svg width="30" height="30" viewBox="0 0 30 30" fill="none" xmlns="http://www.w3.org/2000/svg">
<path fill-rule="evenodd" clip-rule="evenodd" d="M18.0962 17.5H11.9037C10.0811 17.5905 8.46637 18.7037 7.73367 20.375C6.84992 22.11 8.61367 23.75 10.6649 23.75H19.3349C21.3874 23.75 23.1512 22.11 22.2662 20.375C21.5335 18.7037 19.9187 17.5905 18.0962 17.5Z" stroke="#1C1C23" stroke-width="1.5" stroke-linecap="round" stroke-linejoin="round"/>
<path fill-rule="evenodd" clip-rule="evenodd" d="M18.75 10C18.75 12.0711 17.0711 13.75 15 13.75C12.9289 13.75 11.25 12.0711 11.25 10C11.25 7.92893 12.9289 6.25 15 6.25C15.9946 6.25 16.9484 6.64509 17.6517 7.34835C18.3549 8.05161 18.75 9.00544 18.75 10Z" stroke="#1C1C23" stroke-width="1.5" stroke-linecap="round" stroke-linejoin="round"/>
</svg>
