<svg width="20" height="20" viewBox="0 0 20 20" fill="none" xmlns="http://www.w3.org/2000/svg">
<path fill-rule="evenodd" clip-rule="evenodd" d="M3.75 3.75V16.25C3.75 17.6307 4.86929 18.75 6.25 18.75H16.25C17.6307 18.75 18.75 17.6307 18.75 16.25V3.75C18.75 2.36929 17.6307 1.25 16.25 1.25H6.25C4.86929 1.25 3.75 2.36929 3.75 3.75Z" stroke="#1C1C23" stroke-width="1.5" stroke-linecap="round" stroke-linejoin="round"/>
<path fill-rule="evenodd" clip-rule="evenodd" d="M13.75 7.5C13.75 8.88071 12.6307 10 11.25 10C9.86929 10 8.75 8.88071 8.75 7.5C8.75 6.11929 9.86929 5 11.25 5C12.6307 5 13.75 6.11929 13.75 7.5Z" stroke="#1C1C23" stroke-width="1.5" stroke-linecap="round" stroke-linejoin="round"/>
<path d="M3.30108 15.6492C2.96926 15.8971 2.90126 16.3671 3.14919 16.6989C3.39713 17.0307 3.86711 17.0987 4.19892 16.8508L3.30108 15.6492ZM18.3011 16.8508C18.6329 17.0987 19.1029 17.0307 19.3508 16.6989C19.5987 16.3671 19.5307 15.8971 19.1989 15.6492L18.3011 16.8508ZM1.25 5.5C0.835786 5.5 0.5 5.83579 0.5 6.25C0.5 6.66421 0.835786 7 1.25 7V5.5ZM3.75 7C4.16421 7 4.5 6.66421 4.5 6.25C4.5 5.83579 4.16421 5.5 3.75 5.5V7ZM1.25 9.25C0.835786 9.25 0.5 9.58579 0.5 10C0.5 10.4142 0.835786 10.75 1.25 10.75V9.25ZM3.75 10.75C4.16421 10.75 4.5 10.4142 4.5 10C4.5 9.58579 4.16421 9.25 3.75 9.25V10.75ZM1.25 13C0.835786 13 0.5 13.3358 0.5 13.75C0.5 14.1642 0.835786 14.5 1.25 14.5V13ZM3.75 14.5C4.16421 14.5 4.5 14.1642 4.5 13.75C4.5 13.3358 4.16421 13 3.75 13V14.5ZM4.19892 16.8508C8.38046 13.7264 14.1195 13.7264 18.3011 16.8508L19.1989 15.6492C14.4849 12.1269 8.01507 12.1269 3.30108 15.6492L4.19892 16.8508ZM1.25 7H3.75V5.5H1.25V7ZM1.25 10.75H3.75V9.25H1.25V10.75ZM1.25 14.5H3.75V13H1.25V14.5Z" fill="#1C1C23"/>
</svg>
