<svg width="30" height="30" viewBox="0 0 30 30" fill="none" xmlns="http://www.w3.org/2000/svg">
<path fill-rule="evenodd" clip-rule="evenodd" d="M18.3651 6.25H11.6351C10.1989 6.25793 8.82475 6.83607 7.81486 7.85721C6.80497 8.87835 6.24211 10.2588 6.25008 11.695V18.305C6.24211 19.7412 6.80497 21.1217 7.81486 22.1428C8.82475 23.1639 10.1989 23.7421 11.6351 23.75H18.3651C19.8012 23.7421 21.1754 23.1639 22.1853 22.1428C23.1952 21.1217 23.7581 19.7412 23.7501 18.305V11.695C23.7581 10.2588 23.1952 8.87835 22.1853 7.85721C21.1754 6.83607 19.8012 6.25793 18.3651 6.25Z" stroke="#1C1C23" stroke-width="1.5" stroke-linecap="round" stroke-linejoin="round"/>
<path d="M15.855 13.1613H20.0375V17.3301" stroke="#1C1C23" stroke-width="1.5" stroke-linecap="round" stroke-linejoin="round"/>
<path d="M20.0375 13.1613L14.7875 18.5613C14.3277 19.0209 13.5924 19.0513 13.0962 18.6313L11.9712 17.6751C11.709 17.4522 11.3664 17.3473 11.0243 17.3852C10.6823 17.423 10.3709 17.6003 10.1637 17.8751C10.115 17.9401 10.0675 18.0063 10.0125 18.0663L7.10498 21.2501" stroke="#1C1C23" stroke-width="1.5" stroke-linecap="round" stroke-linejoin="round"/>
</svg>
