<svg width="20" height="20" viewBox="0 0 20 20" fill="none" xmlns="http://www.w3.org/2000/svg">
<path fill-rule="evenodd" clip-rule="evenodd" d="M1.25 8.75V11.25C1.25 15.3921 4.60786 18.75 8.75 18.75H11.25C15.3921 18.75 18.75 15.3921 18.75 11.25V8.75C18.75 4.60786 15.3921 1.25 11.25 1.25H8.75C4.60786 1.25 1.25 4.60786 1.25 8.75Z" stroke="#1C1C23" stroke-width="1.5" stroke-linecap="round" stroke-linejoin="round"/>
<path d="M10 10V15" stroke="#1C1C23" stroke-width="1.5" stroke-linecap="round"/>
<path d="M10 6.875C9.65538 6.875 9.375 6.59462 9.375 6.25C9.375 5.90538 9.65538 5.625 10 5.625C10.3446 5.625 10.625 5.90538 10.625 6.25C10.625 6.59462 10.3446 6.875 10 6.875Z" fill="#1C1C23"/>
<path d="M10 5C10.6904 5 11.25 5.55965 11.25 6.25C11.25 6.94035 10.6904 7.5 10 7.5C9.30965 7.5 8.75 6.94035 8.75 6.25C8.75 5.55965 9.30965 5 10 5Z" fill="#1C1C23"/>
</svg>
