<svg width="30" height="30" viewBox="0 0 30 30" fill="none" xmlns="http://www.w3.org/2000/svg">
<path d="M20 12C20.4142 12 20.75 11.6642 20.75 11.25C20.75 10.8358 20.4142 10.5 20 10.5V12ZM12.5 10.5C12.0858 10.5 11.75 10.8358 11.75 11.25C11.75 11.6642 12.0858 12 12.5 12V10.5ZM20 15.75C20.4142 15.75 20.75 15.4142 20.75 15C20.75 14.5858 20.4142 14.25 20 14.25V15.75ZM12.5 14.25C12.0858 14.25 11.75 14.5858 11.75 15C11.75 15.4142 12.0858 15.75 12.5 15.75V14.25ZM16.25 19.5C16.6642 19.5 17 19.1642 17 18.75C17 18.3358 16.6642 18 16.25 18V19.5ZM12.5 18C12.0858 18 11.75 18.3358 11.75 18.75C11.75 19.1642 12.0858 19.5 12.5 19.5V18ZM8.75 18.25C9.16421 18.25 9.5 17.9142 9.5 17.5C9.5 17.0858 9.16421 16.75 8.75 16.75V18.25ZM7.5 16.75C7.08579 16.75 6.75 17.0858 6.75 17.5C6.75 17.9142 7.08579 18.25 7.5 18.25V16.75ZM5 16.75C4.58579 16.75 4.25 17.0858 4.25 17.5C4.25 17.9142 4.58579 18.25 5 18.25V16.75ZM7.5 18.25C7.91421 18.25 8.25 17.9142 8.25 17.5C8.25 17.0858 7.91421 16.75 7.5 16.75V18.25ZM8.75 13.25C9.16421 13.25 9.5 12.9142 9.5 12.5C9.5 12.0858 9.16421 11.75 8.75 11.75V13.25ZM7.5 11.75C7.08579 11.75 6.75 12.0858 6.75 12.5C6.75 12.9142 7.08579 13.25 7.5 13.25V11.75ZM5 11.75C4.58579 11.75 4.25 12.0858 4.25 12.5C4.25 12.9142 4.58579 13.25 5 13.25V11.75ZM7.5 13.25C7.91421 13.25 8.25 12.9142 8.25 12.5C8.25 12.0858 7.91421 11.75 7.5 11.75V13.25ZM6.75 12.5C6.75 12.9142 7.08579 13.25 7.5 13.25C7.91421 13.25 8.25 12.9142 8.25 12.5H6.75ZM8.25 17.5C8.25 17.0858 7.91421 16.75 7.5 16.75C7.08579 16.75 6.75 17.0858 6.75 17.5H8.25ZM8.25 12.5C8.25 12.0858 7.91421 11.75 7.5 11.75C7.08579 11.75 6.75 12.0858 6.75 12.5H8.25ZM6.75 17.5C6.75 17.9142 7.08579 18.25 7.5 18.25C7.91421 18.25 8.25 17.9142 8.25 17.5H6.75ZM20 10.5H12.5V12H20V10.5ZM20 14.25H12.5V15.75H20V14.25ZM16.25 18H12.5V19.5H16.25V18ZM8.75 16.75H7.5V18.25H8.75V16.75ZM5 18.25H7.5V16.75H5V18.25ZM8.75 11.75H7.5V13.25H8.75V11.75ZM5 13.25H7.5V11.75H5V13.25ZM8.25 12.5V11.25H6.75V12.5H8.25ZM8.25 11.25C8.25 8.90279 10.1528 7 12.5 7V5.5C9.32436 5.5 6.75 8.07436 6.75 11.25H8.25ZM12.5 7H20V5.5H12.5V7ZM20 7C22.3472 7 24.25 8.90279 24.25 11.25H25.75C25.75 8.07436 23.1756 5.5 20 5.5V7ZM24.25 11.25V18.75H25.75V11.25H24.25ZM24.25 18.75C24.25 21.0972 22.3472 23 20 23V24.5C23.1756 24.5 25.75 21.9256 25.75 18.75H24.25ZM20 23H12.5V24.5H20V23ZM12.5 23C10.1528 23 8.25 21.0972 8.25 18.75H6.75C6.75 21.9256 9.32436 24.5 12.5 24.5V23ZM8.25 18.75V17.5H6.75V18.75H8.25ZM6.75 12.5V17.5H8.25V12.5H6.75Z" fill="#1C1C23"/>
</svg>
