<svg width="30" height="30" viewBox="0 0 30 30" fill="none" xmlns="http://www.w3.org/2000/svg">
<path d="M22.1414 12.7047C22.2554 13.1029 22.6706 13.3333 23.0688 13.2193C23.4671 13.1053 23.6975 12.6901 23.5835 12.2919L22.1414 12.7047ZM20.7374 8.81075L21.2776 8.29039L21.277 8.28979L20.7374 8.81075ZM16.3887 6.417L16.5402 5.68247L16.5388 5.68219L16.3887 6.417ZM11.4874 6.917L11.192 6.22764L11.1913 6.22796L11.4874 6.917ZM7.67995 10.137L7.04964 9.73054L7.04963 9.73055L7.67995 10.137ZM8.73495 21.1858L9.27728 20.6677L9.27695 20.6674L8.73495 21.1858ZM19.4462 22.2745L19.8732 22.8911L19.8734 22.891L19.4462 22.2745ZM23.2679 18.6248C23.4213 18.24 23.2337 17.8037 22.849 17.6503C22.4642 17.4969 22.0279 17.6845 21.8745 18.0692L23.2679 18.6248ZM22.1366 12.3096C22.0324 12.7105 22.2729 13.12 22.6738 13.2241C23.0747 13.3283 23.4841 13.0878 23.5883 12.6869L22.1366 12.3096ZM24.4758 9.2719C24.58 8.871 24.3395 8.46155 23.9386 8.35737C23.5377 8.25318 23.1282 8.49371 23.0241 8.89461L24.4758 9.2719ZM22.6627 13.2212C23.0619 13.3315 23.475 13.0973 23.5854 12.698C23.6957 12.2988 23.4615 11.8857 23.0622 11.7753L22.6627 13.2212ZM19.751 10.8603C19.3517 10.75 18.9386 10.9842 18.8283 11.3835C18.718 11.7827 18.9522 12.1958 19.3514 12.3062L19.751 10.8603ZM14.4999 12.4983C14.4999 12.084 14.1642 11.7483 13.7499 11.7483C13.3357 11.7483 12.9999 12.084 12.9999 12.4983H14.4999ZM13.7499 16.2483H12.9999C12.9999 16.6625 13.3357 16.9983 13.7499 16.9983V16.2483ZM17.4999 16.9983C17.9142 16.9983 18.2499 16.6625 18.2499 16.2483C18.2499 15.834 17.9142 15.4983 17.4999 15.4983V16.9983ZM23.5835 12.2919C23.1535 10.7896 22.3617 9.41568 21.2776 8.29039L20.1973 9.33112C21.1114 10.2798 21.7789 11.4381 22.1414 12.7047L23.5835 12.2919ZM21.277 8.28979C19.9965 6.96368 18.3456 6.05495 16.5402 5.68247L16.2372 7.15153C17.7468 7.46299 19.1272 8.22285 20.1979 9.33171L21.277 8.28979ZM16.5388 5.68219C14.7426 5.31517 12.8771 5.50548 11.192 6.22764L11.7829 7.60637C13.1871 7.00457 14.7417 6.84598 16.2386 7.15182L16.5388 5.68219ZM11.1913 6.22796C9.49324 6.95781 8.05131 8.17726 7.04964 9.73054L8.31025 10.5435C9.15029 9.24082 10.3596 8.21814 11.7836 7.60605L11.1913 6.22796ZM7.04963 9.73055C4.61526 13.5057 5.08812 18.4579 8.19294 21.7041L9.27695 20.6674C6.65177 17.9226 6.25196 13.7354 8.31026 10.5435L7.04963 9.73055ZM8.19261 21.7038C11.2639 24.9191 16.2178 25.4227 19.8732 22.8911L19.0192 21.6579C15.9705 23.7693 11.8388 23.3494 9.27728 20.6677L8.19261 21.7038ZM19.8734 22.891C21.3995 21.8334 22.5802 20.3495 23.2679 18.6248L21.8745 18.0692C21.296 19.5201 20.3028 20.7684 19.019 21.6581L19.8734 22.891ZM23.5883 12.6869L24.4758 9.2719L23.0241 8.89461L22.1366 12.3096L23.5883 12.6869ZM23.0622 11.7753L19.751 10.8603L19.3514 12.3062L22.6627 13.2212L23.0622 11.7753ZM12.9999 12.4983V16.2483H14.4999V12.4983H12.9999ZM13.7499 16.9983H17.4999V15.4983H13.7499V16.9983Z" fill="#1C1C23"/>
</svg>
