<svg width="30" height="30" viewBox="0 0 30 30" fill="none" xmlns="http://www.w3.org/2000/svg">
<path fill-rule="evenodd" clip-rule="evenodd" d="M6.25002 22.7637V12.1712C6.24656 11.6305 6.68177 11.1891 7.22252 11.185H11.1113C11.652 11.1891 12.0872 11.6305 12.0838 12.1712V7.23625C12.0803 6.69598 12.5148 6.25481 13.055 6.25H16.945C17.4858 6.25413 17.921 6.69549 17.9175 7.23625V10.1975C17.9141 9.65674 18.3493 9.21538 18.89 9.21125H22.7788C23.319 9.21606 23.7535 9.65723 23.75 10.1975V22.7637C23.7535 23.3045 23.3183 23.7459 22.7775 23.75H7.22252C6.68177 23.7459 6.24656 23.3045 6.25002 22.7637V22.7637Z" stroke="#1C1C23" stroke-width="1.5" stroke-linecap="round" stroke-linejoin="round"/>
<path d="M11.3337 23.7499C11.3337 24.1642 11.6695 24.4999 12.0837 24.4999C12.498 24.4999 12.8337 24.1642 12.8337 23.7499H11.3337ZM12.8337 12.1712C12.8337 11.757 12.498 11.4212 12.0837 11.4212C11.6695 11.4212 11.3337 11.757 11.3337 12.1712H12.8337ZM17.1662 23.7499C17.1662 24.1642 17.502 24.4999 17.9162 24.4999C18.3305 24.4999 18.6662 24.1642 18.6662 23.7499H17.1662ZM18.6662 10.1974C18.6662 9.78324 18.3305 9.44745 17.9162 9.44745C17.502 9.44745 17.1662 9.78324 17.1662 10.1974H18.6662ZM12.8337 23.7499V12.1712H11.3337V23.7499H12.8337ZM18.6662 23.7499V10.1974H17.1662V23.7499H18.6662Z" fill="#1C1C23"/>
</svg>
