<svg width="40" height="40" viewBox="0 0 40 40" fill="none" xmlns="http://www.w3.org/2000/svg">
<path d="M7.07992 32.1997L11.7728 27.5068C12.1633 27.1163 12.1633 26.4831 11.7728 26.0926L4.21281 18.5326C4.02528 18.345 3.91992 18.0907 3.91992 17.8255V4.67969C3.91992 4.1274 4.36764 3.67969 4.91992 3.67969H23.7555C24.6016 3.67969 25.0653 4.66489 24.5262 5.31691L18.7947 12.2487C18.4767 12.6334 18.4909 13.1936 18.8281 13.5616L28.3199 23.9197" stroke="white" stroke-width="3" stroke-linecap="round"/>
<path d="M32.84 7.75929L28.1471 12.4522C27.7566 12.8427 27.7566 13.4759 28.1471 13.8664L35.7071 21.4264C35.8946 21.6139 36 21.8683 36 22.1335L36 35.2793C36 35.8316 35.5523 36.2793 35 36.2793L15.6129 36.2793C14.7722 36.2793 14.3067 35.3051 14.8349 34.651L20.6977 27.3909C21.0092 27.0051 20.991 26.4492 20.6548 26.0847L11.28 15.9193" stroke="white" stroke-width="3" stroke-linecap="round"/>
</svg>
