<svg width="30" height="30" viewBox="0 0 30 30" fill="none" xmlns="http://www.w3.org/2000/svg">
<path fill-rule="evenodd" clip-rule="evenodd" d="M20.3033 8.37357C21.7055 9.70958 22.4991 11.5618 22.4991 13.4986C22.4991 15.4354 21.7055 17.2876 20.3033 18.6236L14.9996 23.7486L9.69581 18.6236C8.29358 17.2876 7.5 15.4354 7.5 13.4986C7.5 11.5618 8.29358 9.70958 9.69581 8.37357C12.6648 5.54214 17.3343 5.54214 20.3033 8.37357Z" stroke="#1C1C23" stroke-width="1.5" stroke-linecap="round" stroke-linejoin="round"/>
<path fill-rule="evenodd" clip-rule="evenodd" d="M17.9995 13.0536C17.9886 13.8383 17.6665 14.5866 17.1038 15.1337C16.5412 15.6809 15.7842 15.9821 14.9995 15.9711C14.2148 15.9821 13.4578 15.6809 12.8952 15.1337C12.3326 14.5866 12.0104 13.8383 11.9995 13.0536C12.0228 11.4199 13.3659 10.1144 14.9995 10.1373C16.6332 10.1144 17.9762 11.4199 17.9995 13.0536V13.0536Z" stroke="#1C1C23" stroke-width="1.5" stroke-linecap="round" stroke-linejoin="round"/>
</svg>
