<svg width="40" height="40" viewBox="0 0 40 40" fill="none" xmlns="http://www.w3.org/2000/svg">
<circle cx="20" cy="20" r="20" fill="#3448FF"/>
<path d="M25 17C25.4142 17 25.75 16.6642 25.75 16.25C25.75 15.8358 25.4142 15.5 25 15.5V17ZM17.5 15.5C17.0858 15.5 16.75 15.8358 16.75 16.25C16.75 16.6642 17.0858 17 17.5 17V15.5ZM25 20.75C25.4142 20.75 25.75 20.4142 25.75 20C25.75 19.5858 25.4142 19.25 25 19.25V20.75ZM17.5 19.25C17.0858 19.25 16.75 19.5858 16.75 20C16.75 20.4142 17.0858 20.75 17.5 20.75V19.25ZM21.25 24.5C21.6642 24.5 22 24.1642 22 23.75C22 23.3358 21.6642 23 21.25 23V24.5ZM17.5 23C17.0858 23 16.75 23.3358 16.75 23.75C16.75 24.1642 17.0858 24.5 17.5 24.5V23ZM13.75 23.25C14.1642 23.25 14.5 22.9142 14.5 22.5C14.5 22.0858 14.1642 21.75 13.75 21.75V23.25ZM12.5 21.75C12.0858 21.75 11.75 22.0858 11.75 22.5C11.75 22.9142 12.0858 23.25 12.5 23.25V21.75ZM10 21.75C9.58579 21.75 9.25 22.0858 9.25 22.5C9.25 22.9142 9.58579 23.25 10 23.25V21.75ZM12.5 23.25C12.9142 23.25 13.25 22.9142 13.25 22.5C13.25 22.0858 12.9142 21.75 12.5 21.75V23.25ZM13.75 18.25C14.1642 18.25 14.5 17.9142 14.5 17.5C14.5 17.0858 14.1642 16.75 13.75 16.75V18.25ZM12.5 16.75C12.0858 16.75 11.75 17.0858 11.75 17.5C11.75 17.9142 12.0858 18.25 12.5 18.25V16.75ZM10 16.75C9.58579 16.75 9.25 17.0858 9.25 17.5C9.25 17.9142 9.58579 18.25 10 18.25V16.75ZM12.5 18.25C12.9142 18.25 13.25 17.9142 13.25 17.5C13.25 17.0858 12.9142 16.75 12.5 16.75V18.25ZM11.75 17.5C11.75 17.9142 12.0858 18.25 12.5 18.25C12.9142 18.25 13.25 17.9142 13.25 17.5H11.75ZM13.25 22.5C13.25 22.0858 12.9142 21.75 12.5 21.75C12.0858 21.75 11.75 22.0858 11.75 22.5H13.25ZM13.25 17.5C13.25 17.0858 12.9142 16.75 12.5 16.75C12.0858 16.75 11.75 17.0858 11.75 17.5H13.25ZM11.75 22.5C11.75 22.9142 12.0858 23.25 12.5 23.25C12.9142 23.25 13.25 22.9142 13.25 22.5H11.75ZM25 15.5H17.5V17H25V15.5ZM25 19.25H17.5V20.75H25V19.25ZM21.25 23H17.5V24.5H21.25V23ZM13.75 21.75H12.5V23.25H13.75V21.75ZM10 23.25H12.5V21.75H10V23.25ZM13.75 16.75H12.5V18.25H13.75V16.75ZM10 18.25H12.5V16.75H10V18.25ZM13.25 17.5V16.25H11.75V17.5H13.25ZM13.25 16.25C13.25 13.9028 15.1528 12 17.5 12V10.5C14.3244 10.5 11.75 13.0744 11.75 16.25H13.25ZM17.5 12H25V10.5H17.5V12ZM25 12C27.3472 12 29.25 13.9028 29.25 16.25H30.75C30.75 13.0744 28.1756 10.5 25 10.5V12ZM29.25 16.25V23.75H30.75V16.25H29.25ZM29.25 23.75C29.25 26.0972 27.3472 28 25 28V29.5C28.1756 29.5 30.75 26.9256 30.75 23.75H29.25ZM25 28H17.5V29.5H25V28ZM17.5 28C15.1528 28 13.25 26.0972 13.25 23.75H11.75C11.75 26.9256 14.3244 29.5 17.5 29.5V28ZM13.25 23.75V22.5H11.75V23.75H13.25ZM11.75 17.5V22.5H13.25V17.5H11.75Z" fill="white"/>
</svg>
