<svg width="40" height="40" viewBox="0 0 40 40" fill="none" xmlns="http://www.w3.org/2000/svg">
<circle cx="20" cy="20" r="20" fill="#3448FF"/>
<path fill-rule="evenodd" clip-rule="evenodd" d="M25.3033 13.3736C26.7055 14.7096 27.4991 16.5618 27.4991 18.4986C27.4991 20.4354 26.7055 22.2876 25.3033 23.6236L19.9996 28.7486L14.6958 23.6236C13.2936 22.2876 12.5 20.4354 12.5 18.4986C12.5 16.5618 13.2936 14.7096 14.6958 13.3736C17.6648 10.5421 22.3343 10.5421 25.3033 13.3736Z" stroke="white" stroke-width="1.5" stroke-linecap="round" stroke-linejoin="round"/>
<path fill-rule="evenodd" clip-rule="evenodd" d="M22.9995 18.0536C22.9886 18.8383 22.6665 19.5866 22.1038 20.1337C21.5412 20.6809 20.7842 20.9821 19.9995 20.9711C19.2148 20.9821 18.4578 20.6809 17.8952 20.1337C17.3326 19.5866 17.0104 18.8383 16.9995 18.0536C17.0228 16.4199 18.3659 15.1144 19.9995 15.1373C21.6332 15.1144 22.9762 16.4199 22.9995 18.0536V18.0536Z" stroke="white" stroke-width="1.5" stroke-linecap="round" stroke-linejoin="round"/>
</svg>
