<svg width="40" height="40" viewBox="0 0 40 40" fill="none" xmlns="http://www.w3.org/2000/svg">
<circle cx="20" cy="20" r="20" fill="#3448FF"/>
<path fill-rule="evenodd" clip-rule="evenodd" d="M23.3651 11.25H16.6351C15.1989 11.2579 13.8248 11.8361 12.8149 12.8572C11.805 13.8783 11.2421 15.2588 11.2501 16.695V23.305C11.2421 24.7412 11.805 26.1217 12.8149 27.1428C13.8248 28.1639 15.1989 28.7421 16.6351 28.75H23.3651C24.8012 28.7421 26.1754 28.1639 27.1853 27.1428C28.1952 26.1217 28.7581 24.7412 28.7501 23.305V16.695C28.7581 15.2588 28.1952 13.8783 27.1853 12.8572C26.1754 11.8361 24.8012 11.2579 23.3651 11.25Z" stroke="white" stroke-width="1.5" stroke-linecap="round" stroke-linejoin="round"/>
<path d="M20.855 18.1613H25.0375V22.3301" stroke="white" stroke-width="1.5" stroke-linecap="round" stroke-linejoin="round"/>
<path d="M25.0375 18.1613L19.7875 23.5613C19.3277 24.0209 18.5924 24.0513 18.0962 23.6313L16.9712 22.6751C16.709 22.4522 16.3664 22.3473 16.0243 22.3852C15.6823 22.423 15.3709 22.6003 15.1637 22.8751C15.115 22.9401 15.0675 23.0063 15.0125 23.0663L12.105 26.2501" stroke="white" stroke-width="1.5" stroke-linecap="round" stroke-linejoin="round"/>
</svg>
