<svg width="40" height="40" viewBox="0 0 40 40" fill="none" xmlns="http://www.w3.org/2000/svg">
<circle cx="20" cy="20" r="20" fill="#3448FF"/>
<path d="M10.298 17.734C10.5806 17.4312 10.5643 16.9566 10.2614 16.674C9.95859 16.3914 9.484 16.4078 9.20139 16.7106L10.298 17.734ZM5.70184 20.4606C5.41923 20.7634 5.43563 21.238 5.73846 21.5206C6.04129 21.8032 6.51588 21.7868 6.79849 21.484L5.70184 20.4606ZM6.79849 20.4605C6.51588 20.1577 6.04129 20.1413 5.73846 20.4239C5.43563 20.7065 5.41923 21.1811 5.70184 21.4839L6.79849 20.4605ZM9.20139 25.2339C9.484 25.5368 9.95859 25.5532 10.2614 25.2706C10.5643 24.9879 10.5806 24.5134 10.298 24.2105L9.20139 25.2339ZM6.25 20.2223C5.83579 20.2223 5.5 20.5581 5.5 20.9723C5.5 21.3865 5.83579 21.7223 6.25 21.7223V20.2223ZM22.5 21.7223C22.9142 21.7223 23.25 21.3865 23.25 20.9723C23.25 20.5581 22.9142 20.2223 22.5 20.2223V21.7223ZM9.20139 16.7106L5.70184 20.4606L6.79849 21.484L10.298 17.734L9.20139 16.7106ZM5.70184 21.4839L9.20139 25.2339L10.298 24.2105L6.79849 20.4605L5.70184 21.4839ZM6.25 21.7223H22.5V20.2223H6.25V21.7223Z" fill="white"/>
<path d="M12.4998 24.7222C12.4998 27.4837 14.7383 29.7222 17.4998 29.7222H22.4998C25.2612 29.7222 27.4998 27.4837 27.4998 24.7222V17.2222C27.4998 14.4608 25.2612 12.2222 22.4998 12.2222H17.4998C14.7383 12.2222 12.4998 14.4608 12.4998 17.2222" stroke="white" stroke-width="1.5" stroke-linecap="round" stroke-linejoin="round"/>
</svg>
