<svg width="40" height="40" viewBox="0 0 40 40" fill="none" xmlns="http://www.w3.org/2000/svg">
<circle cx="20" cy="20" r="20" fill="#3448FF"/>
<path fill-rule="evenodd" clip-rule="evenodd" d="M23.0962 22.5H16.9037C15.0811 22.5905 13.4664 23.7037 12.7337 25.375C11.8499 27.11 13.6137 28.75 15.6649 28.75H24.3349C26.3874 28.75 28.1512 27.11 27.2662 25.375C26.5335 23.7037 24.9187 22.5905 23.0962 22.5Z" stroke="white" stroke-width="1.5" stroke-linecap="round" stroke-linejoin="round"/>
<path fill-rule="evenodd" clip-rule="evenodd" d="M23.75 15C23.75 17.0711 22.0711 18.75 20 18.75C17.9289 18.75 16.25 17.0711 16.25 15C16.25 12.9289 17.9289 11.25 20 11.25C20.9946 11.25 21.9484 11.6451 22.6517 12.3483C23.3549 13.0516 23.75 14.0054 23.75 15Z" stroke="white" stroke-width="1.5" stroke-linecap="round" stroke-linejoin="round"/>
</svg>
