<svg width="40" height="40" viewBox="0 0 40 40" fill="none" xmlns="http://www.w3.org/2000/svg">
<circle cx="20" cy="20" r="20" fill="#3448FF"/>
<path fill-rule="evenodd" clip-rule="evenodd" d="M12.75 13.75V26.25C12.75 27.6307 13.8693 28.75 15.25 28.75H25.25C26.6307 28.75 27.75 27.6307 27.75 26.25V13.75C27.75 12.3693 26.6307 11.25 25.25 11.25H15.25C13.8693 11.25 12.75 12.3693 12.75 13.75Z" stroke="white" stroke-width="1.5" stroke-linecap="round" stroke-linejoin="round"/>
<path fill-rule="evenodd" clip-rule="evenodd" d="M22.75 17.5C22.75 18.8807 21.6307 20 20.25 20C18.8693 20 17.75 18.8807 17.75 17.5C17.75 16.1193 18.8693 15 20.25 15C21.6307 15 22.75 16.1193 22.75 17.5Z" stroke="white" stroke-width="1.5" stroke-linecap="round" stroke-linejoin="round"/>
<path d="M12.3011 25.6492C11.9693 25.8971 11.9013 26.3671 12.1492 26.6989C12.3971 27.0307 12.8671 27.0987 13.1989 26.8508L12.3011 25.6492ZM27.3011 26.8508C27.6329 27.0987 28.1029 27.0307 28.3508 26.6989C28.5987 26.3671 28.5307 25.8971 28.1989 25.6492L27.3011 26.8508ZM10.25 15.5C9.83579 15.5 9.5 15.8358 9.5 16.25C9.5 16.6642 9.83579 17 10.25 17V15.5ZM12.75 17C13.1642 17 13.5 16.6642 13.5 16.25C13.5 15.8358 13.1642 15.5 12.75 15.5V17ZM10.25 19.25C9.83579 19.25 9.5 19.5858 9.5 20C9.5 20.4142 9.83579 20.75 10.25 20.75V19.25ZM12.75 20.75C13.1642 20.75 13.5 20.4142 13.5 20C13.5 19.5858 13.1642 19.25 12.75 19.25V20.75ZM10.25 23C9.83579 23 9.5 23.3358 9.5 23.75C9.5 24.1642 9.83579 24.5 10.25 24.5V23ZM12.75 24.5C13.1642 24.5 13.5 24.1642 13.5 23.75C13.5 23.3358 13.1642 23 12.75 23V24.5ZM13.1989 26.8508C17.3805 23.7264 23.1195 23.7264 27.3011 26.8508L28.1989 25.6492C23.4849 22.1269 17.0151 22.1269 12.3011 25.6492L13.1989 26.8508ZM10.25 17H12.75V15.5H10.25V17ZM10.25 20.75H12.75V19.25H10.25V20.75ZM10.25 24.5H12.75V23H10.25V24.5Z" fill="white"/>
</svg>
