<svg width="40" height="40" viewBox="0 0 40 40" fill="none" xmlns="http://www.w3.org/2000/svg">
<circle cx="20" cy="20" r="20" fill="#3448FF"/>
<path d="M27.1414 17.7047C27.2554 18.1029 27.6706 18.3333 28.0688 18.2193C28.4671 18.1053 28.6975 17.6901 28.5835 17.2919L27.1414 17.7047ZM25.7374 13.8108L26.2776 13.2904L26.277 13.2898L25.7374 13.8108ZM21.3887 11.417L21.5402 10.6825L21.5388 10.6822L21.3887 11.417ZM16.4874 11.917L16.192 11.2276L16.1913 11.228L16.4874 11.917ZM12.6799 15.137L12.0496 14.7305L12.0496 14.7306L12.6799 15.137ZM13.7349 26.1858L14.2773 25.6677L14.277 25.6674L13.7349 26.1858ZM24.4462 27.2745L24.8732 27.8911L24.8734 27.891L24.4462 27.2745ZM28.2679 23.6248C28.4213 23.24 28.2337 22.8037 27.849 22.6503C27.4642 22.4969 27.0279 22.6845 26.8745 23.0692L28.2679 23.6248ZM27.1366 17.3096C27.0324 17.7105 27.2729 18.12 27.6738 18.2241C28.0747 18.3283 28.4841 18.0878 28.5883 17.6869L27.1366 17.3096ZM29.4758 14.2719C29.58 13.871 29.3395 13.4616 28.9386 13.3574C28.5377 13.2532 28.1282 13.4937 28.0241 13.8946L29.4758 14.2719ZM27.6627 18.2212C28.0619 18.3315 28.475 18.0973 28.5854 17.698C28.6957 17.2988 28.4615 16.8857 28.0622 16.7753L27.6627 18.2212ZM24.751 15.8603C24.3517 15.75 23.9386 15.9842 23.8283 16.3835C23.718 16.7827 23.9522 17.1958 24.3514 17.3062L24.751 15.8603ZM19.4999 17.4983C19.4999 17.084 19.1642 16.7483 18.7499 16.7483C18.3357 16.7483 17.9999 17.084 17.9999 17.4983H19.4999ZM18.7499 21.2483H17.9999C17.9999 21.6625 18.3357 21.9983 18.7499 21.9983V21.2483ZM22.4999 21.9983C22.9142 21.9983 23.2499 21.6625 23.2499 21.2483C23.2499 20.834 22.9142 20.4983 22.4999 20.4983V21.9983ZM28.5835 17.2919C28.1535 15.7896 27.3617 14.4157 26.2776 13.2904L25.1973 14.3311C26.1114 15.2798 26.7789 16.4381 27.1414 17.7047L28.5835 17.2919ZM26.277 13.2898C24.9965 11.9637 23.3456 11.0549 21.5402 10.6825L21.2372 12.1515C22.7468 12.463 24.1272 13.2229 25.1979 14.3317L26.277 13.2898ZM21.5388 10.6822C19.7426 10.3152 17.8771 10.5055 16.192 11.2276L16.7829 12.6064C18.1871 12.0046 19.7417 11.846 21.2386 12.1518L21.5388 10.6822ZM16.1913 11.228C14.4932 11.9578 13.0513 13.1773 12.0496 14.7305L13.3103 15.5435C14.1503 14.2408 15.3596 13.2181 16.7836 12.606L16.1913 11.228ZM12.0496 14.7306C9.61526 18.5057 10.0881 23.4579 13.1929 26.7041L14.277 25.6674C11.6518 22.9226 11.252 18.7354 13.3103 15.5435L12.0496 14.7306ZM13.1926 26.7038C16.2639 29.9191 21.2178 30.4226 24.8732 27.8911L24.0192 26.6579C20.9705 28.7693 16.8388 28.3494 14.2773 25.6677L13.1926 26.7038ZM24.8734 27.891C26.3995 26.8334 27.5802 25.3495 28.2679 23.6248L26.8745 23.0692C26.296 24.5201 25.3028 25.7684 24.019 26.6581L24.8734 27.891ZM28.5883 17.6869L29.4758 14.2719L28.0241 13.8946L27.1366 17.3096L28.5883 17.6869ZM28.0622 16.7753L24.751 15.8603L24.3514 17.3062L27.6627 18.2212L28.0622 16.7753ZM17.9999 17.4983V21.2483H19.4999V17.4983H17.9999ZM18.7499 21.9983H22.4999V20.4983H18.7499V21.9983Z" fill="white"/>
</svg>
