<svg width="40" height="40" viewBox="0 0 40 40" fill="none" xmlns="http://www.w3.org/2000/svg">
<circle cx="20" cy="20" r="20" fill="#3448FF"/>
<path fill-rule="evenodd" clip-rule="evenodd" d="M11.25 27.7637V17.1712C11.2466 16.6305 11.6818 16.1891 12.2225 16.185H16.1113C16.652 16.1891 17.0872 16.6305 17.0838 17.1712V12.2362C17.0803 11.696 17.5148 11.2548 18.055 11.25H21.945C22.4858 11.2541 22.921 11.6955 22.9175 12.2362V15.1975C22.9141 14.6567 23.3493 14.2154 23.89 14.2112H27.7788C28.319 14.2161 28.7535 14.6572 28.75 15.1975V27.7637C28.7535 28.3045 28.3183 28.7459 27.7775 28.75H12.2225C11.6818 28.7459 11.2466 28.3045 11.25 27.7637V27.7637Z" stroke="white" stroke-width="1.5" stroke-linecap="round" stroke-linejoin="round"/>
<path d="M16.3337 28.7499C16.3337 29.1642 16.6695 29.4999 17.0837 29.4999C17.498 29.4999 17.8337 29.1642 17.8337 28.7499H16.3337ZM17.8337 17.1712C17.8337 16.757 17.498 16.4212 17.0837 16.4212C16.6695 16.4212 16.3337 16.757 16.3337 17.1712H17.8337ZM22.1662 28.7499C22.1662 29.1642 22.502 29.4999 22.9162 29.4999C23.3305 29.4999 23.6662 29.1642 23.6662 28.7499H22.1662ZM23.6662 15.1974C23.6662 14.7832 23.3305 14.4474 22.9162 14.4474C22.502 14.4474 22.1662 14.7832 22.1662 15.1974H23.6662ZM17.8337 28.7499V17.1712H16.3337V28.7499H17.8337ZM23.6662 28.7499V15.1974H22.1662V28.7499H23.6662Z" fill="white"/>
</svg>
