<svg width="30" height="30" viewBox="0 0 30 30" fill="none" xmlns="http://www.w3.org/2000/svg">
<path d="M5.30994 24.15L8.65284 20.8071C9.04336 20.4166 9.04336 19.7834 8.65283 19.3929L3.23283 13.9729C3.0453 13.7854 2.93994 13.531 2.93994 13.2658V3.75999C2.93994 3.20771 3.38766 2.75999 3.93994 2.75999H17.2855C18.1316 2.75999 18.5953 3.7452 18.0562 4.39722L14.2347 9.01904C13.9167 9.40367 13.9309 9.96391 14.2681 10.3319L21.2399 17.94" stroke="#092EB0" stroke-width="3" stroke-linecap="round"/>
<path d="M24.63 5.82L21.2871 9.16289C20.8966 9.55341 20.8966 10.1866 21.2871 10.5771L26.7071 15.9971C26.8946 16.1846 27 16.439 27 16.7042L27 26.21C27 26.7623 26.5523 27.21 26 27.21L12.2329 27.21C11.3922 27.21 10.9267 26.2358 11.4549 25.5817L15.3877 20.7116C15.6992 20.3258 15.681 19.7699 15.3448 19.4054L8.46 11.94" stroke="#DD0706" stroke-width="3" stroke-linecap="round"/>
</svg>
