<svg width="40" height="40" viewBox="0 0 40 40" fill="none" xmlns="http://www.w3.org/2000/svg">
<circle cx="20" cy="20" r="20" fill="#3448FF"/>
<path d="M16.25 28.7501C16.25 29.1643 16.5858 29.5001 17 29.5001C17.4142 29.5001 17.75 29.1643 17.75 28.7501H16.25ZM17 25.9613L16.2505 25.9327C16.2502 25.9422 16.25 25.9518 16.25 25.9613H17ZM20 23.1738L19.9736 23.9234C19.9912 23.924 20.0088 23.924 20.0264 23.9234L20 23.1738ZM23 25.9613H23.75C23.75 25.9518 23.7498 25.9422 23.7495 25.9327L23 25.9613ZM22.25 28.7501C22.25 29.1643 22.5858 29.5001 23 29.5001C23.4142 29.5001 23.75 29.1643 23.75 28.7501H22.25ZM17 28.0001C16.5858 28.0001 16.25 28.3359 16.25 28.7501C16.25 29.1643 16.5858 29.5001 17 29.5001V28.0001ZM23 29.5001C23.4142 29.5001 23.75 29.1643 23.75 28.7501C23.75 28.3359 23.4142 28.0001 23 28.0001V29.5001ZM17 29.5001C17.4142 29.5001 17.75 29.1643 17.75 28.7501C17.75 28.3359 17.4142 28.0001 17 28.0001V29.5001ZM16.25 28.7501V28.0001C16.2412 28.0001 16.2324 28.0002 16.2236 28.0006L16.25 28.7501ZM11.75 24.5676H11C11 24.5771 11.0002 24.5865 11.0005 24.596L11.75 24.5676ZM12.5 16.1851C12.5 15.7709 12.1642 15.4351 11.75 15.4351C11.3358 15.4351 11 15.7709 11 16.1851H12.5ZM8.3288 17.6008C7.98607 17.8334 7.89682 18.2998 8.12944 18.6425C8.36207 18.9853 8.82848 19.0745 9.1712 18.8419L8.3288 17.6008ZM12.1712 16.8056C12.5139 16.573 12.6032 16.1066 12.3706 15.7639C12.1379 15.4212 11.6715 15.3319 11.3288 15.5645L12.1712 16.8056ZM11.3288 15.5645C10.9861 15.7971 10.8968 16.2635 11.1294 16.6063C11.362 16.949 11.8284 17.0383 12.1712 16.8057L11.3288 15.5645ZM18.27 11.7601L17.8631 11.1301C17.8583 11.1332 17.8535 11.1363 17.8488 11.1395L18.27 11.7601ZM21.73 11.7601L22.1512 11.1395C22.1465 11.1363 22.1417 11.1332 22.1369 11.1301L21.73 11.7601ZM27.8288 16.8057C28.1716 17.0383 28.638 16.949 28.8706 16.6063C29.1032 16.2635 29.0139 15.7971 28.6712 15.5645L27.8288 16.8057ZM23 28.0001C22.5858 28.0001 22.25 28.3359 22.25 28.7501C22.25 29.1643 22.5858 29.5001 23 29.5001V28.0001ZM23.75 28.7501L23.7764 28.0006C23.7676 28.0002 23.7588 28.0001 23.75 28.0001V28.7501ZM28.25 24.5676L28.9995 24.596C28.9998 24.5865 29 24.5771 29 24.5676H28.25ZM29 16.1851C29 15.7709 28.6642 15.4351 28.25 15.4351C27.8358 15.4351 27.5 15.7709 27.5 16.1851H29ZM30.829 18.8408C31.1718 19.0733 31.6381 18.9839 31.8707 18.6411C32.1032 18.2983 32.0138 17.8319 31.671 17.5994L30.829 18.8408ZM28.671 15.5644C28.3282 15.3319 27.8619 15.4213 27.6293 15.7641C27.3968 16.1069 27.4862 16.5732 27.829 16.8058L28.671 15.5644ZM17.75 28.7501V25.9613H16.25V28.7501H17.75ZM17.7495 25.99C17.7947 24.8059 18.7894 23.8816 19.9736 23.9234L20.0264 22.4243C18.016 22.3535 16.3273 23.9226 16.2505 25.9327L17.7495 25.99ZM20.0264 23.9234C21.2106 23.8816 22.2053 24.8059 22.2505 25.99L23.7495 25.9327C23.6727 23.9226 21.984 22.3535 19.9736 22.4243L20.0264 23.9234ZM22.25 25.9613V28.7501H23.75V25.9613H22.25ZM17 29.5001H23V28.0001H17V29.5001ZM17 28.0001H16.25V29.5001H17V28.0001ZM16.2236 28.0006C14.2404 28.0704 12.5746 26.5222 12.4995 24.5392L11.0005 24.596C11.107 27.4053 13.4668 29.5986 16.2764 29.4996L16.2236 28.0006ZM12.5 24.5676V16.1851H11V24.5676H12.5ZM9.1712 18.8419L12.1712 16.8056L11.3288 15.5645L8.3288 17.6008L9.1712 18.8419ZM12.1712 16.8057L18.6912 12.3807L17.8488 11.1395L11.3288 15.5645L12.1712 16.8057ZM18.6769 12.3901C19.4823 11.87 20.5177 11.87 21.3231 12.3901L22.1369 11.1301C20.8361 10.29 19.1639 10.29 17.8631 11.1301L18.6769 12.3901ZM21.3088 12.3807L27.8288 16.8057L28.6712 15.5645L22.1512 11.1395L21.3088 12.3807ZM23 29.5001H23.75V28.0001H23V29.5001ZM23.7236 29.4996C26.5332 29.5986 28.893 27.4053 28.9995 24.596L27.5005 24.5392C27.4254 26.5222 25.7596 28.0704 23.7764 28.0006L23.7236 29.4996ZM29 24.5676V16.1851H27.5V24.5676H29ZM31.671 17.5994L28.671 15.5644L27.829 16.8058L30.829 18.8408L31.671 17.5994Z" fill="white"/>
</svg>
