<svg width="30" height="30" viewBox="0 0 30 30" fill="none" xmlns="http://www.w3.org/2000/svg">
<path d="M11.25 23.7501C11.25 24.1643 11.5858 24.5001 12 24.5001C12.4142 24.5001 12.75 24.1643 12.75 23.7501H11.25ZM12 20.9613L11.2505 20.9327C11.2502 20.9422 11.25 20.9518 11.25 20.9613H12ZM15 18.1738L14.9736 18.9234C14.9912 18.924 15.0088 18.924 15.0264 18.9234L15 18.1738ZM18 20.9613H18.75C18.75 20.9518 18.7498 20.9422 18.7495 20.9327L18 20.9613ZM17.25 23.7501C17.25 24.1643 17.5858 24.5001 18 24.5001C18.4142 24.5001 18.75 24.1643 18.75 23.7501H17.25ZM12 23.0001C11.5858 23.0001 11.25 23.3359 11.25 23.7501C11.25 24.1643 11.5858 24.5001 12 24.5001V23.0001ZM18 24.5001C18.4142 24.5001 18.75 24.1643 18.75 23.7501C18.75 23.3359 18.4142 23.0001 18 23.0001V24.5001ZM12 24.5001C12.4142 24.5001 12.75 24.1643 12.75 23.7501C12.75 23.3359 12.4142 23.0001 12 23.0001V24.5001ZM11.25 23.7501V23.0001C11.2412 23.0001 11.2324 23.0002 11.2236 23.0006L11.25 23.7501ZM6.75 19.5676H6C6 19.5771 6.00018 19.5865 6.00054 19.596L6.75 19.5676ZM7.5 11.1851C7.5 10.7709 7.16421 10.4351 6.75 10.4351C6.33579 10.4351 6 10.7709 6 11.1851H7.5ZM3.3288 12.6008C2.98607 12.8334 2.89682 13.2998 3.12944 13.6425C3.36207 13.9853 3.82848 14.0745 4.1712 13.8419L3.3288 12.6008ZM7.1712 11.8056C7.51393 11.573 7.60318 11.1066 7.37056 10.7639C7.13793 10.4212 6.67152 10.3319 6.3288 10.5645L7.1712 11.8056ZM6.32883 10.5645C5.98609 10.7971 5.89682 11.2635 6.12942 11.6063C6.36203 11.949 6.82844 12.0383 7.17117 11.8057L6.32883 10.5645ZM13.27 6.76009L12.8631 6.13006C12.8583 6.13316 12.8535 6.13631 12.8488 6.13951L13.27 6.76009ZM16.73 6.76009L17.1512 6.13951C17.1465 6.13631 17.1417 6.13316 17.1369 6.13006L16.73 6.76009ZM22.8288 11.8057C23.1716 12.0383 23.638 11.949 23.8706 11.6063C24.1032 11.2635 24.0139 10.7971 23.6712 10.5645L22.8288 11.8057ZM18 23.0001C17.5858 23.0001 17.25 23.3359 17.25 23.7501C17.25 24.1643 17.5858 24.5001 18 24.5001V23.0001ZM18.75 23.7501L18.7764 23.0006C18.7676 23.0002 18.7588 23.0001 18.75 23.0001L18.75 23.7501ZM23.25 19.5676L23.9995 19.596C23.9998 19.5865 24 19.5771 24 19.5676H23.25ZM24 11.1851C24 10.7709 23.6642 10.4351 23.25 10.4351C22.8358 10.4351 22.5 10.7709 22.5 11.1851H24ZM25.829 13.8408C26.1718 14.0733 26.6381 13.9839 26.8707 13.6411C27.1032 13.2983 27.0138 12.8319 26.671 12.5994L25.829 13.8408ZM23.671 10.5644C23.3282 10.3319 22.8619 10.4213 22.6293 10.7641C22.3968 11.1069 22.4862 11.5732 22.829 11.8058L23.671 10.5644ZM12.75 23.7501V20.9613H11.25V23.7501H12.75ZM12.7495 20.99C12.7947 19.8059 13.7894 18.8817 14.9736 18.9234L15.0264 17.4243C13.016 17.3535 11.3273 18.9226 11.2505 20.9327L12.7495 20.99ZM15.0264 18.9234C16.2106 18.8817 17.2053 19.8059 17.2505 20.99L18.7495 20.9327C18.6727 18.9226 16.984 17.3535 14.9736 17.4243L15.0264 18.9234ZM17.25 20.9613V23.7501H18.75V20.9613H17.25ZM12 24.5001H18V23.0001H12V24.5001ZM12 23.0001H11.25V24.5001H12V23.0001ZM11.2236 23.0006C9.24038 23.0704 7.57464 21.5222 7.49946 19.5392L6.00054 19.596C6.10705 22.4053 8.46684 24.5986 11.2764 24.4996L11.2236 23.0006ZM7.5 19.5676V11.1851H6V19.5676H7.5ZM4.1712 13.8419L7.1712 11.8056L6.3288 10.5645L3.3288 12.6008L4.1712 13.8419ZM7.17117 11.8057L13.6912 7.38066L12.8488 6.13951L6.32883 10.5645L7.17117 11.8057ZM13.6769 7.39011C14.4823 6.86996 15.5177 6.86996 16.3231 7.39011L17.1369 6.13006C15.8361 5.28998 14.1639 5.28998 12.8631 6.13006L13.6769 7.39011ZM16.3088 7.38066L22.8288 11.8057L23.6712 10.5645L17.1512 6.13951L16.3088 7.38066ZM18 24.5001H18.75V23.0001H18V24.5001ZM18.7236 24.4996C21.5332 24.5986 23.893 22.4053 23.9995 19.596L22.5005 19.5392C22.4254 21.5222 20.7596 23.0704 18.7764 23.0006L18.7236 24.4996ZM24 19.5676V11.1851H22.5V19.5676H24ZM26.671 12.5994L23.671 10.5644L22.829 11.8058L25.829 13.8408L26.671 12.5994Z" fill="#1C1C23"/>
</svg>
