<svg width="30" height="30" viewBox="0 0 30 30" fill="none" xmlns="http://www.w3.org/2000/svg">
<path d="M5.29804 12.734C5.58065 12.4312 5.56425 11.9566 5.26142 11.674C4.95859 11.3914 4.484 11.4078 4.20139 11.7106L5.29804 12.734ZM0.701839 15.4606C0.419233 15.7634 0.435629 16.238 0.738461 16.5206C1.04129 16.8032 1.51588 16.7868 1.79849 16.484L0.701839 15.4606ZM1.79849 15.4605C1.51588 15.1577 1.04129 15.1413 0.738461 15.4239C0.435629 15.7065 0.419233 16.1811 0.701839 16.4839L1.79849 15.4605ZM4.20139 20.2339C4.484 20.5368 4.95859 20.5532 5.26142 20.2706C5.56425 19.9879 5.58065 19.5134 5.29804 19.2105L4.20139 20.2339ZM1.25 15.2223C0.835787 15.2223 0.5 15.5581 0.5 15.9723C0.5 16.3865 0.835787 16.7223 1.25 16.7223V15.2223ZM17.5 16.7223C17.9142 16.7223 18.25 16.3865 18.25 15.9723C18.25 15.5581 17.9142 15.2223 17.5 15.2223V16.7223ZM4.20139 11.7106L0.701839 15.4606L1.79849 16.484L5.29804 12.734L4.20139 11.7106ZM0.701839 16.4839L4.20139 20.2339L5.29804 19.2105L1.79849 15.4605L0.701839 16.4839ZM1.25 16.7223H17.5V15.2223L1.25 15.2223V16.7223Z" fill="#1C1C23"/>
<path d="M7.49976 19.7222C7.49976 22.4837 9.73833 24.7222 12.4998 24.7222H17.4998C20.2612 24.7222 22.4998 22.4837 22.4998 19.7222V12.2222C22.4998 9.46081 20.2612 7.22223 17.4998 7.22223H12.4998C9.73833 7.22223 7.49976 9.46081 7.49976 12.2222" stroke="#1C1C23" stroke-width="1.5" stroke-linecap="round" stroke-linejoin="round"/>
</svg>
