<svg width="30" height="30" viewBox="0 0 30 30" fill="none" xmlns="http://www.w3.org/2000/svg">
<path fill-rule="evenodd" clip-rule="evenodd" d="M7.75 8.75V21.25C7.75 22.6307 8.86929 23.75 10.25 23.75H20.25C21.6307 23.75 22.75 22.6307 22.75 21.25V8.75C22.75 7.36929 21.6307 6.25 20.25 6.25H10.25C8.86929 6.25 7.75 7.36929 7.75 8.75Z" stroke="#1C1C23" stroke-width="1.5" stroke-linecap="round" stroke-linejoin="round"/>
<path fill-rule="evenodd" clip-rule="evenodd" d="M17.75 12.5C17.75 13.8807 16.6307 15 15.25 15C13.8693 15 12.75 13.8807 12.75 12.5C12.75 11.1193 13.8693 10 15.25 10C16.6307 10 17.75 11.1193 17.75 12.5Z" stroke="#1C1C23" stroke-width="1.5" stroke-linecap="round" stroke-linejoin="round"/>
<path d="M7.30108 20.6492C6.96926 20.8971 6.90126 21.3671 7.14919 21.6989C7.39713 22.0307 7.86711 22.0987 8.19892 21.8508L7.30108 20.6492ZM22.3011 21.8508C22.6329 22.0987 23.1029 22.0307 23.3508 21.6989C23.5987 21.3671 23.5307 20.8971 23.1989 20.6492L22.3011 21.8508ZM5.25 10.5C4.83579 10.5 4.5 10.8358 4.5 11.25C4.5 11.6642 4.83579 12 5.25 12V10.5ZM7.75 12C8.16421 12 8.5 11.6642 8.5 11.25C8.5 10.8358 8.16421 10.5 7.75 10.5V12ZM5.25 14.25C4.83579 14.25 4.5 14.5858 4.5 15C4.5 15.4142 4.83579 15.75 5.25 15.75V14.25ZM7.75 15.75C8.16421 15.75 8.5 15.4142 8.5 15C8.5 14.5858 8.16421 14.25 7.75 14.25V15.75ZM5.25 18C4.83579 18 4.5 18.3358 4.5 18.75C4.5 19.1642 4.83579 19.5 5.25 19.5V18ZM7.75 19.5C8.16421 19.5 8.5 19.1642 8.5 18.75C8.5 18.3358 8.16421 18 7.75 18V19.5ZM8.19892 21.8508C12.3805 18.7264 18.1195 18.7264 22.3011 21.8508L23.1989 20.6492C18.4849 17.1269 12.0151 17.1269 7.30108 20.6492L8.19892 21.8508ZM5.25 12H7.75V10.5H5.25V12ZM5.25 15.75H7.75V14.25H5.25V15.75ZM5.25 19.5H7.75V18H5.25V19.5Z" fill="#1C1C23"/>
</svg>
